ffmpeg started on 2016-11-27 at 18:06:30
Report written to "Output/NVENCh264/results/ffmpeg/crowd_run_2160p50llhp1000k.log"
Command line:
Tools/ffmpeg/ffmpeg -benchmark -y -i Input/y4m/crowd_run_2160p50.y4m -c:v h264_nvenc -preset llhp -b:v 1000k -an Output/NVENCh264/encoded/crowd_run_2160p50llhp1000k.mkv
ffmpeg version N-82227-gdb23fde Copyright (c) 2000-2016 the FFmpeg developers
  built with gcc 5.4.0 (Ubuntu 5.4.0-6ubuntu1~16.04.2) 20160609
  configuration: --prefix=/home/jaroslav/ffmpeg_build --pkg-config-flags=--static --extra-cflags=-I/home/jaroslav/ffmpeg_build/include --extra-ldflags=-L/home/jaroslav/ffmpeg_build/lib --bindir=/home/jaroslav/bin --enable-gpl --enable-libass --enable-libfdk-aac --enable-libfreetype --enable-libmp3lame --enable-libopus --enable-libtheora --enable-libvorbis --enable-libvpx --enable-libx264 --enable-libx265 --enable-nvenc --enable-libmfx --enable-libxvid --enable-libgsm --enable-libopencore-amrnb --enable-version3 --enable-nonfree
  libavutil      55. 35.100 / 55. 35.100
  libavcodec     57. 66.101 / 57. 66.101
  libavformat    57. 57.100 / 57. 57.100
  libavdevice    57.  2.100 / 57.  2.100
  libavfilter     6. 66.100 /  6. 66.100
  libswscale      4.  3.100 /  4.  3.100
  libswresample   2.  4.100 /  2.  4.100
  libpostproc    54.  2.100 / 54.  2.100
Input #0, yuv4mpegpipe, from 'Input/y4m/crowd_run_2160p50.y4m':
  Duration: 00:00:10.00, start: 0.000000, bitrate: 4976642 kb/s
    Stream #0:0: Video: rawvideo (I420 / 0x30323449), yuv420p(progressive), 3840x2160, SAR 1:1 DAR 16:9, 50 fps, 50 tbr, 50 tbn, 50 tbc
[h264_nvenc @ 0x422e1c0] The variable bitrate rate-control requires the 'qmin' and/or 'qmax' option set.
Output #0, matroska, to 'Output/NVENCh264/encoded/crowd_run_2160p50llhp1000k.mkv':
  Metadata:
    encoder         : Lavf57.57.100
    Stream #0:0: Video: h264 (h264_nvenc) (Main) (H264 / 0x34363248), yuv420p, 3840x2160 [SAR 1:1 DAR 16:9], q=-1--1, 1000 kb/s, 50 fps, 1k tbn, 50 tbc
    Metadata:
      encoder         : Lavc57.66.101 h264_nvenc
    Side data:
      cpb: bitrate max/min/avg: 0/0/1000000 buffer size: 2000000 vbv_delay: -1
Stream mapping:
  Stream #0:0 -> #0:0 (rawvideo (native) -> h264 (h264_nvenc))
Press [q] to stop, [?] for help
frame=   13 fps=0.0 q=0.0 size=       0kB time=00:00:00.00 bitrate=N/A speed=   0x    frame=   30 fps= 29 q=0.0 size=       0kB time=00:00:00.00 bitrate=N/A speed=   0x    frame=   48 fps= 31 q=49.0 size=       1kB time=00:00:00.34 bitrate=  17.5kbits/s speed=0.218x    frame=   66 fps= 32 q=49.0 size=       1kB time=00:00:00.70 bitrate=   8.5kbits/s speed=0.336x    frame=   84 fps= 32 q=49.0 size=       1kB time=00:00:01.06 bitrate=   5.6kbits/s speed=0.407x    frame=  101 fps= 32 q=49.0 size=       1kB time=00:00:01.40 bitrate=   4.3kbits/s speed=0.45x    frame=  119 fps= 33 q=49.0 size=       1kB time=00:00:01.76 bitrate=   3.4kbits/s speed=0.484x    frame=  132 fps= 20 q=49.0 size=       1kB time=00:00:02.02 bitrate=   2.9kbits/s speed=0.304x    frame=  133 fps= 13 q=49.0 size=       1kB time=00:00:02.04 bitrate=   2.9kbits/s speed=0.201x    frame=  134 fps= 11 q=49.0 size=       1kB time=00:00:02.06 bitrate=   2.9kbits/s speed=0.172x    frame=  151 fps= 12 q=49.0 size=       1kB time=00:00:02.40 bitrate=   2.5kbits/s speed=0.192x    frame=  168 fps= 13 q=49.0 size=       1kB time=00:00:02.74 bitrate=   2.2kbits/s speed=0.211x    frame=  185 fps= 14 q=49.0 size=       1kB time=00:00:03.08 bitrate=   1.9kbits/s speed=0.228x    frame=  202 fps= 14 q=49.0 size=       1kB time=00:00:03.42 bitrate=   1.7kbits/s speed=0.244x    frame=  219 fps= 15 q=49.0 size=       1kB time=00:00:03.76 bitrate=   1.6kbits/s speed=0.259x    frame=  237 fps= 16 q=49.0 size=       1kB time=00:00:04.12 bitrate=   1.4kbits/s speed=0.274x    frame=  255 fps= 16 q=49.0 size=       1kB time=00:00:04.48 bitrate=   1.3kbits/s speed=0.288x    frame=  273 fps= 17 q=49.0 size=       1kB time=00:00:04.84 bitrate=   1.2kbits/s speed=0.301x    frame=  290 fps= 17 q=49.0 size=    3012kB time=00:00:05.18 bitrate=4762.3kbits/s speed=0.312x    frame=  308 fps= 18 q=49.0 size=    3012kB time=00:00:05.54 bitrate=4452.8kbits/s speed=0.324x    frame=  326 fps= 18 q=49.0 size=    3012kB time=00:00:05.90 bitrate=4181.2kbits/s speed=0.334x    frame=  344 fps= 19 q=49.0 size=    3012kB time=00:00:06.26 bitrate=3940.8kbits/s speed=0.345x    frame=  362 fps= 19 q=49.0 size=    3012kB time=00:00:06.62 bitrate=3726.5kbits/s speed=0.354x    frame=  380 fps= 20 q=49.0 size=    3012kB time=00:00:06.98 bitrate=3534.3kbits/s speed=0.363x    frame=  398 fps= 20 q=49.0 size=    3012kB time=00:00:07.34 bitrate=3361.0kbits/s speed=0.372x    frame=  416 fps= 21 q=49.0 size=    3012kB time=00:00:07.70 bitrate=3203.9kbits/s speed=0.38x    frame=  434 fps= 21 q=49.0 size=    3012kB time=00:00:08.06 bitrate=3060.8kbits/s speed=0.388x    frame=  452 fps= 21 q=49.0 size=    3012kB time=00:00:08.42 bitrate=2930.0kbits/s speed=0.396x    frame=  470 fps= 22 q=49.0 size=    3012kB time=00:00:08.78 bitrate=2809.8kbits/s speed=0.403x    frame=  488 fps= 22 q=49.0 size=    3012kB time=00:00:09.14 bitrate=2699.2kbits/s speed=0.41x    frame=  500 fps= 22 q=49.0 Lsize=    6263kB time=00:00:09.98 bitrate=5140.6kbits/s speed=0.44x    
video:6259kB audio:0kB subtitle:0kB other streams:0kB global headers:0kB muxing overhead: 0.067841%
bench: utime=1.152s
bench: maxrss=1396960kB
